<?xml version="1.0" encoding="iso-8859-1"?>
<!-- Generator: Adobe Illustrator 19.0.0, SVG Export Plug-In . SVG Version: 6.00 Build 0)  -->
<svg version="1.1" id="Layer_1" xmlns="http://www.w3.org/2000/svg" xmlns:xlink="http://www.w3.org/1999/xlink" x="0px" y="0px"
	 viewBox="0 0 512 512" style="enable-background:new 0 0 512 512;" xml:space="preserve">
<g>
	<g>
		<path d="M489.834,385.299h-41.733V102.505c0-11.152-8.671-20.135-19.823-20.135h-43.851c-11.152,0-20.555,8.983-20.555,20.135
			v282.794h-62.063v-179.14c0-11.152-8.664-20.349-19.816-20.349h-43.849c-11.152,0-20.564,9.197-20.564,20.349v179.14h-62.063
			V276.281c0-11.152-8.656-19.543-19.809-19.543H91.858c-11.152,0-20.57,8.39-20.57,19.543v109.017H22.166
			C9.924,385.299,0,395.223,0,407.464s9.924,22.166,22.166,22.166h467.669c12.241,0,22.166-9.924,22.166-22.166
			S502.077,385.299,489.834,385.299z"/>
	</g>
</g>
<g>
</g>
<g>
</g>
<g>
</g>
<g>
</g>
<g>
</g>
<g>
</g>
<g>
</g>
<g>
</g>
<g>
</g>
<g>
</g>
<g>
</g>
<g>
</g>
<g>
</g>
<g>
</g>
<g>
</g>
</svg>
